{
  "accessors": [
    {
      "bufferView": 2,
      "componentType": 5126,
      "count": 8400,
      "max": [
        1.0377680063247681,
        3.0073869228363037,
        1.0377682447433472
      ],
      "min": [
        -1.0377682447433472,
        -1.1029422283172607,
        -1.0377688407897949
      ],
      "type": "VEC3"
    },
    {
      "bufferView": 2,
      "byteOffset": 100800,
      "componentType": 5126,
      "count": 8400,
      "max": [
        1,
        1,
        1
      ],
      "min": [
        -1,
        -1,
        -1
      ],
      "type": "VEC3"
    },
    {
      "bufferView": 3,
      "componentType": 5126,
      "count": 8400,
      "max": [
        1,
        0.98490196466445923,
        1,
        1
      ],
      "min": [
        -1,
        -0.96689426898956299,
        -1,
        -1
      ],
      "type": "VEC4"
    },
    {
      "bufferView": 0,
      "componentType": 5125,
      "count": 33360,
      "max": [
        8399
      ],
      "min": [
        0
      ],
      "type": "SCALAR"
    },
    {
      "bufferView": 2,
      "byteOffset": 201600,
      "componentType": 5126,
      "count": 99,
      "max": [
        1.0377680063247681,
        0.99592447280883789,
        7.8231096267700195e-08
      ],
      "min": [
        9.1269612312316895e-08,
        -0.1428571343421936,
        -1.0377688407897949
      ],
      "type": "VEC3"
    },
    {
      "bufferView": 2,
      "byteOffset": 202788,
      "componentType": 5126,
      "count": 99,
      "max": [
        1,
        0.073136240243911743,
        1.2771170077030547e-06
      ],
      "min": [
        -5.6706591067268164e-07,
        -3.1236430686476524e-07,
        -1
      ],
      "type": "VEC3"
    },
    {
      "bufferView": 3,
      "byteOffset": 134400,
      "componentType": 5126,
      "count": 99,
      "max": [
        1.1947186067118309e-06,
        0.0057743615470826626,
        4.0907130482992216e-07,
        1
      ],
      "min": [
        -1,
        -0.0057759336195886135,
        -1,
        1
      ],
      "type": "VEC4"
    },
    {
      "bufferView": 1,
      "componentType": 5126,
      "count": 99,
      "max": [
        0.99885237216949463,
        0.99985742568969727
      ],
      "min": [
        -0.0011477470397949219,
        -0.00014284253120422363
      ],
      "type": "VEC2"
    },
    {
      "bufferView": 0,
      "byteOffset": 133440,
      "componentType": 5125,
      "count": 480,
      "max": [
        98
      ],
      "min": [
        0
      ],
      "type": "SCALAR"
    }
  ],
  "asset": {
    "extras": {
      "author": "Even Haaland (https://sketchfab.com/EvenHaaland)",
      "license": "CC-BY-4.0 (http://creativecommons.org/licenses/by/4.0/)",
      "source": "https://sketchfab.com/models/fb8ba6812b6847f8b7f26dc319c07f93",
      "title": "Wine Bottle"
    },
    "generator": "Sketchfab-3.20.7",
    "version": "2.0"
  },
  "bufferViews": [
    {
      "buffer": 0,
      "byteLength": 135360,
      "byteOffset": 0,
      "name": "floatBufferViews",
      "target": 34963
    },
    {
      "buffer": 0,
      "byteLength": 792,
      "byteOffset": 135360,
      "byteStride": 8,
      "name": "floatBufferViews",
      "target": 34962
    },
    {
      "buffer": 0,
      "byteLength": 203976,
      "byteOffset": 136152,
      "byteStride": 12,
      "name": "floatBufferViews",
      "target": 34962
    },
    {
      "buffer": 0,
      "byteLength": 135984,
      "byteOffset": 340128,
      "byteStride": 16,
      "name": "floatBufferViews",
      "target": 34962
    }
  ],
  "buffers": [
    {
      "byteLength": 476112,
      "uri": "scene.bin"
    }
  ],
  "images": [
    {
      "uri": "textures/lambert7_baseColor.png"
    }
  ],
  "materials": [
    {
      "doubleSided": true,
      "emissiveFactor": [
        0,
        0,
        0
      ],
      "name": "phong1",
      "pbrMetallicRoughness": {
        "baseColorFactor": [
          0.013953125,
          0.035684374999999997,
          0.01650625,
          1
        ],
        "metallicFactor": 0,
        "roughnessFactor": 0.59999999999999998
      }
    },
    {
      "alphaMode": "BLEND",
      "doubleSided": true,
      "emissiveFactor": [
        0,
        0,
        0
      ],
      "name": "lambert7",
      "pbrMetallicRoughness": {
        "baseColorFactor": [
          1,
          1,
          1,
          1
        ],
        "baseColorTexture": {
          "index": 0,
          "texCoord": 0
        },
        "metallicFactor": 0,
        "roughnessFactor": 0.59999999999999998
      }
    }
  ],
  "meshes": [
    {
      "name": "pCylinder1_phong1_0",
      "primitives": [
        {
          "attributes": {
            "NORMAL": 1,
            "POSITION": 0,
            "TANGENT": 2
          },
          "indices": 3,
          "material": 0,
          "mode": 4
        }
      ]
    },
    {
      "name": "pCylinder1_lambert7_0",
      "primitives": [
        {
          "attributes": {
            "NORMAL": 5,
            "POSITION": 4,
            "TANGENT": 6,
            "TEXCOORD_0": 7
          },
          "indices": 8,
          "material": 1,
          "mode": 4
        }
      ]
    }
  ],
  "nodes": [
    {
      "children": [
        1
      ],
      "name": "RootNode (gltf orientation matrix)",
      "rotation": [
        -0.70710678118654746,
        -0,
        -0,
        0.70710678118654757
      ]
    },
    {
      "children": [
        2
      ],
      "name": "RootNode (model correction matrix)"
    },
    {
      "children": [
        3
      ],
      "matrix": [
        1,
        0,
        0,
        0,
        0,
        0,
        1,
        0,
        0,
        -1,
        0,
        0,
        0,
        0,
        0,
        1
      ],
      "name": "e16ec0a67eec420d9568cfe840aa136c.fbx"
    },
    {
      "children": [
        4
      ],
      "name": "RootNode"
    },
    {
      "children": [
        5,
        6
      ],
      "matrix": [
        -0.71082078850460451,
        8.7050440340956135e-17,
        0.7033731631429313,
        0,
        4.1720609839929856e-16,
        2,
        1.7410088068191227e-16,
        0,
        -0.7033731631429313,
        2.0860304919964928e-16,
        -0.71082078850460451,
        0,
        0,
        0,
        0,
        1
      ],
      "name": "pCylinder1"
    },
    {
      "mesh": 0,
      "name": "pCylinder1_phong1_0"
    },
    {
      "mesh": 1,
      "name": "pCylinder1_lambert7_0"
    }
  ],
  "samplers": [
    {
      "magFilter": 9729,
      "minFilter": 9987,
      "wrapS": 10497,
      "wrapT": 10497
    }
  ],
  "scene": 0,
  "scenes": [
    {
      "name": "OSG_Scene",
      "nodes": [
        0
      ]
    }
  ],
  "textures": [
    {
      "sampler": 0,
      "source": 0
    }
  ]
}

